<svg width="316" height="144" viewBox="0 0 316 144" fill="none" xmlns="http://www.w3.org/2000/svg"><g clip-path="url(#a)"><g clip-path="url(#b)"><path d="M108 96.5H68c-13.509 0-24.5-10.99-24.5-24.5S54.491 47.5 68 47.5h56a.5.5 0 0 1 0 1H68c-12.958 0-23.5 10.542-23.5 23.5S55.042 95.5 68 95.5h40a.5.5 0 0 1 0 1zM244 96.5h-56a.5.5 0 0 1 0-1h56c12.958 0 23.5-10.542 23.5-23.5S256.958 48.5 244 48.5h-40a.5.5 0 0 1 0-1h40c13.51 0 24.5 10.99 24.5 24.5S257.51 96.5 244 96.5z" fill="#1F1F1F"/><path d="M92 88.5H68a.5.5 0 0 1 0-1h24a.5.5 0 0 1 0 1zM130 88.5h-24a.5.5 0 0 1 0-1h24a.5.5 0 0 1 0 1zM206 88.5h-24a.5.5 0 0 1 0-1h24a.5.5 0 0 1 0 1zM244 88.5h-24a.5.5 0 0 1 0-1h24a.5.5 0 0 1 0 1zM92 72.5H68a.5.5 0 0 1 0-1h24a.5.5 0 0 1 0 1z" fill="#1F1F1F"/><path d="M74 82.893a.5.5 0 0 1-.433-.75l12-20.785a.5.5 0 1 1 .866.5l-12 20.785a.5.5 0 0 1-.433.25z" fill="#1F1F1F"/><path d="M86 82.893a.502.502 0 0 1-.434-.25l-12-20.785a.5.5 0 0 1 .866-.5l12 20.785a.5.5 0 0 1-.432.75zM244 72.5h-24a.5.5 0 0 1 0-1h24a.5.5 0 0 1 0 1z" fill="#1F1F1F"/><path d="M226 82.893a.5.5 0 0 1-.433-.75l12-20.785a.501.501 0 0 1 .866.5l-12 20.785a.5.5 0 0 1-.433.25z" fill="#1F1F1F"/><path d="M238 82.893a.5.5 0 0 1-.433-.25l-12-20.785a.498.498 0 0 1 .183-.683.498.498 0 0 1 .683.183l12 20.785a.498.498 0 0 1-.433.75z" fill="#1F1F1F"/><path d="M151.959 65H119a7 7 0 1 0 0 14h24.876l8.083-14z" fill="#34A853"/><path d="M143.876 65h8.083L156 58l-12.438-21.543a7 7 0 0 0-12.124 7L143.876 65z" fill="#FBBC04"/><path d="M168.124 79h-24.249l-12.438 21.543a7 7 0 1 0 12.124 7L155.999 86l12.438 21.543a7 7 0 1 0 12.124-7L168.124 79z" fill="#EA4335"/><path d="M193 65h-24.875l12.438-21.543a7 7 0 1 0-12.124-7L156.001 58l12.124 21h24.876a7 7 0 1 0 0-14H193z" fill="#1A73E8"/><path d="M143.876 79h24.248L156 58l-12.124 21 12.13.001-12.13-.001z" fill="#174EA6"/></g></g><defs><clipPath id="a"><path fill="#fff" d="M0 0h316v144H0z"/></clipPath><clipPath id="b"><path fill="#fff" d="M0 0h316v144H0z"/></clipPath></defs></svg>